<svg width="439" height="318" viewBox="0 0 439 318" fill="none" xmlns="http://www.w3.org/2000/svg">
<path d="M116.5 226.5C116.5 226.5 28.6667 209.5 0 209V0.5C6 22.1 56.5 16.5001 81 11.0001C119.667 7.33345 208.1 3.20012 252.5 16.0001C308 32.0001 314 46.0001 362 59.0001C400.4 69.4001 429 54.6668 438.5 46.0001V297.5C429.667 304.667 414.5 318 392.5 318C376.56 318 319.667 308.667 292.5 297.5C286.167 295.333 263.5 285.1 223.5 261.5C173.5 232 116.5 226.5 116.5 226.5Z" fill="#A5D263" fill-opacity="0.53"/>
</svg>
